<?xml version="1.0" encoding="UTF-8" standalone="no"?>
<!DOCTYPE svg PUBLIC "-//W3C//DTD SVG 1.1//EN"
 "http://www.w3.org/Graphics/SVG/1.1/DTD/svg11.dtd">
<!-- Generated by graphviz version 2.43.0 (0)
 -->
<!-- Title: %3 Pages: 1 -->
<svg width="450pt" height="238pt"
 viewBox="0.00 0.00 450.00 237.74" xmlns="http://www.w3.org/2000/svg" xmlns:xlink="http://www.w3.org/1999/xlink">
<g id="graph0" class="graph" transform="scale(1 1) rotate(0) translate(36 201.74)">
<title>%3</title>
<polygon fill="dimgray" stroke="transparent" points="-36,36 -36,-201.74 414,-201.74 414,36 -36,36"/>
<text text-anchor="middle" x="189" y="-150.54" font-family="Helvetica,sans-Serif" font-size="14.00">Sweep&#39;s Plan &amp; Progress</text>
<!-- start -->
<g id="node1" class="node">
<title>start</title>
</g>
<!-- 8bd357d2&#45;4876&#45;4583&#45;945a&#45;399e6a37701f -->
<g id="node3" class="node">
<title>8bd357d2&#45;4876&#45;4583&#45;945a&#45;399e6a37701f</title>
<ellipse fill="#0ee832" stroke="black" cx="188.5" cy="-99.87" rx="130.63" ry="26.74"/>
<text text-anchor="middle" x="188.5" y="-103.67" font-family="Helvetica,sans-Serif" font-size="14.00">✓ Modify</text>
<text text-anchor="middle" x="188.5" y="-88.67" font-family="Helvetica,sans-Serif" font-size="14.00">frontend/src/api/index.js</text>
</g>
<!-- start&#45;&gt;8bd357d2&#45;4876&#45;4583&#45;945a&#45;399e6a37701f -->
<g id="edge2" class="edge">
<title>start&#45;&gt;8bd357d2&#45;4876&#45;4583&#45;945a&#45;399e6a37701f</title>
<path fill="none" stroke="black" d="M6.02,-99.87C9.11,-99.87 25.51,-99.87 47.31,-99.87"/>
<polygon fill="black" stroke="black" points="47.31,-103.37 57.31,-99.87 47.31,-96.37 47.31,-103.37"/>
<text text-anchor="middle" x="31.84" y="-106.67" font-family="Helvetica,sans-Serif" font-size="14.00">Start</text>
</g>
<!-- end -->
<g id="node2" class="node">
<title>end</title>
</g>
<!-- 8bd357d2&#45;4876&#45;4583&#45;945a&#45;399e6a37701f&#45;&gt;end -->
<g id="edge3" class="edge">
<title>8bd357d2&#45;4876&#45;4583&#45;945a&#45;399e6a37701f&#45;&gt;end</title>
<path fill="none" stroke="black" d="M319.51,-99.87C338.99,-99.87 356.03,-99.87 366.51,-99.87"/>
<polygon fill="black" stroke="black" points="366.84,-103.37 376.84,-99.87 366.84,-96.37 366.84,-103.37"/>
<text text-anchor="middle" x="348.16" y="-106.67" font-family="Helvetica,sans-Serif" font-size="14.00">Finish</text>
</g>
<!-- dcb57a2e&#45;e3a6&#45;412a&#45;8b2e&#45;759467e131e9 -->
<g id="node4" class="node">
<title>dcb57a2e&#45;e3a6&#45;412a&#45;8b2e&#45;759467e131e9</title>
<polygon fill="#0ee832" stroke="black" points="377,-36 0,-36 0,0 377,0 377,-36"/>
<text text-anchor="middle" x="188.5" y="-14.3" font-family="Helvetica,sans-Serif" font-size="14.00">✓ Run GitHub Actions for `frontend/src/api/index.js`</text>
</g>
<!-- 8bd357d2&#45;4876&#45;4583&#45;945a&#45;399e6a37701f&#45;&gt;dcb57a2e&#45;e3a6&#45;412a&#45;8b2e&#45;759467e131e9 -->
<g id="edge1" class="edge">
<title>8bd357d2&#45;4876&#45;4583&#45;945a&#45;399e6a37701f&#45;&gt;dcb57a2e&#45;e3a6&#45;412a&#45;8b2e&#45;759467e131e9</title>
<path fill="none" stroke="black" stroke-dasharray="5,2" d="M188.5,-72.72C188.5,-64.27 188.5,-54.89 188.5,-46.36"/>
<polygon fill="black" stroke="black" points="192,-46.15 188.5,-36.15 185,-46.15 192,-46.15"/>
</g>
</g>
</svg>
