<?xml version="1.0" encoding="UTF-8" standalone="no"?>
<!DOCTYPE svg PUBLIC "-//W3C//DTD SVG 1.1//EN"
 "http://www.w3.org/Graphics/SVG/1.1/DTD/svg11.dtd">
<!-- Generated by graphviz version 2.43.0 (0)
 -->
<!-- Title: %3 Pages: 1 -->
<svg width="450pt" height="238pt"
 viewBox="0.00 0.00 449.50 237.74" xmlns="http://www.w3.org/2000/svg" xmlns:xlink="http://www.w3.org/1999/xlink">
<g id="graph0" class="graph" transform="scale(1 1) rotate(0) translate(36 201.74)">
<title>%3</title>
<polygon fill="dimgray" stroke="transparent" points="-36,36 -36,-201.74 413.5,-201.74 413.5,36 -36,36"/>
<text text-anchor="middle" x="188.75" y="-150.54" font-family="Helvetica,sans-Serif" font-size="14.00">Sweep&#39;s Plan &amp; Progress</text>
<!-- start -->
<g id="node1" class="node">
<title>start</title>
</g>
<!-- 8bd357d2&#45;4876&#45;4583&#45;945a&#45;399e6a37701f -->
<g id="node3" class="node">
<title>8bd357d2&#45;4876&#45;4583&#45;945a&#45;399e6a37701f</title>
<ellipse fill="yellow" stroke="black" cx="188" cy="-99.87" rx="130.63" ry="26.74"/>
<text text-anchor="middle" x="188" y="-103.67" font-family="Helvetica,sans-Serif" font-size="14.00">⋯ Modify</text>
<text text-anchor="middle" x="188" y="-88.67" font-family="Helvetica,sans-Serif" font-size="14.00">frontend/src/api/index.js</text>
</g>
<!-- start&#45;&gt;8bd357d2&#45;4876&#45;4583&#45;945a&#45;399e6a37701f -->
<g id="edge2" class="edge">
<title>start&#45;&gt;8bd357d2&#45;4876&#45;4583&#45;945a&#45;399e6a37701f</title>
<path fill="none" stroke="black" d="M5.52,-99.87C8.61,-99.87 25.01,-99.87 46.81,-99.87"/>
<polygon fill="black" stroke="black" points="46.81,-103.37 56.81,-99.87 46.81,-96.37 46.81,-103.37"/>
<text text-anchor="middle" x="31.34" y="-106.67" font-family="Helvetica,sans-Serif" font-size="14.00">Start</text>
</g>
<!-- end -->
<g id="node2" class="node">
<title>end</title>
</g>
<!-- 8bd357d2&#45;4876&#45;4583&#45;945a&#45;399e6a37701f&#45;&gt;end -->
<g id="edge3" class="edge">
<title>8bd357d2&#45;4876&#45;4583&#45;945a&#45;399e6a37701f&#45;&gt;end</title>
<path fill="none" stroke="black" d="M319.01,-99.87C338.49,-99.87 355.53,-99.87 366.01,-99.87"/>
<polygon fill="black" stroke="black" points="366.34,-103.37 376.34,-99.87 366.34,-96.37 366.34,-103.37"/>
<text text-anchor="middle" x="347.66" y="-106.67" font-family="Helvetica,sans-Serif" font-size="14.00">Finish</text>
</g>
<!-- dcb57a2e&#45;e3a6&#45;412a&#45;8b2e&#45;759467e131e9 -->
<g id="node4" class="node">
<title>dcb57a2e&#45;e3a6&#45;412a&#45;8b2e&#45;759467e131e9</title>
<polygon fill="white" stroke="black" points="376,-36 0,-36 0,0 376,0 376,-36"/>
<text text-anchor="middle" x="188" y="-14.3" font-family="Helvetica,sans-Serif" font-size="14.00">▶ Run GitHub Actions for `frontend/src/api/index.js`</text>
</g>
<!-- 8bd357d2&#45;4876&#45;4583&#45;945a&#45;399e6a37701f&#45;&gt;dcb57a2e&#45;e3a6&#45;412a&#45;8b2e&#45;759467e131e9 -->
<g id="edge1" class="edge">
<title>8bd357d2&#45;4876&#45;4583&#45;945a&#45;399e6a37701f&#45;&gt;dcb57a2e&#45;e3a6&#45;412a&#45;8b2e&#45;759467e131e9</title>
<path fill="none" stroke="black" stroke-dasharray="5,2" d="M188,-72.72C188,-64.27 188,-54.89 188,-46.36"/>
<polygon fill="black" stroke="black" points="191.5,-46.15 188,-36.15 184.5,-46.15 191.5,-46.15"/>
</g>
</g>
</svg>
