<?xml version="1.0" encoding="UTF-8" standalone="no"?>
<!DOCTYPE svg PUBLIC "-//W3C//DTD SVG 1.1//EN"
 "http://www.w3.org/Graphics/SVG/1.1/DTD/svg11.dtd">
<!-- Generated by graphviz version 2.43.0 (0)
 -->
<!-- Title: %3 Pages: 1 -->
<svg width="452pt" height="238pt"
 viewBox="0.00 0.00 452.00 237.74" xmlns="http://www.w3.org/2000/svg" xmlns:xlink="http://www.w3.org/1999/xlink">
<g id="graph0" class="graph" transform="scale(1 1) rotate(0) translate(36 201.74)">
<title>%3</title>
<polygon fill="dimgray" stroke="transparent" points="-36,36 -36,-201.74 416,-201.74 416,36 -36,36"/>
<text text-anchor="middle" x="190" y="-150.54" font-family="Helvetica,sans-Serif" font-size="14.00">Sweep&#39;s Plan &amp; Progress</text>
<!-- start -->
<g id="node1" class="node">
<title>start</title>
</g>
<!-- 8bd357d2&#45;4876&#45;4583&#45;945a&#45;399e6a37701f -->
<g id="node3" class="node">
<title>8bd357d2&#45;4876&#45;4583&#45;945a&#45;399e6a37701f</title>
<ellipse fill="#0ee832" stroke="black" cx="190" cy="-99.87" rx="130.63" ry="26.74"/>
<text text-anchor="middle" x="190" y="-103.67" font-family="Helvetica,sans-Serif" font-size="14.00">✓ Modify</text>
<text text-anchor="middle" x="190" y="-88.67" font-family="Helvetica,sans-Serif" font-size="14.00">frontend/src/api/index.js</text>
</g>
<!-- start&#45;&gt;8bd357d2&#45;4876&#45;4583&#45;945a&#45;399e6a37701f -->
<g id="edge2" class="edge">
<title>start&#45;&gt;8bd357d2&#45;4876&#45;4583&#45;945a&#45;399e6a37701f</title>
<path fill="none" stroke="black" d="M7.52,-99.87C10.61,-99.87 27.01,-99.87 48.81,-99.87"/>
<polygon fill="black" stroke="black" points="48.81,-103.37 58.81,-99.87 48.81,-96.37 48.81,-103.37"/>
<text text-anchor="middle" x="33.34" y="-106.67" font-family="Helvetica,sans-Serif" font-size="14.00">Start</text>
</g>
<!-- end -->
<g id="node2" class="node">
<title>end</title>
</g>
<!-- 8bd357d2&#45;4876&#45;4583&#45;945a&#45;399e6a37701f&#45;&gt;end -->
<g id="edge3" class="edge">
<title>8bd357d2&#45;4876&#45;4583&#45;945a&#45;399e6a37701f&#45;&gt;end</title>
<path fill="none" stroke="black" d="M321.01,-99.87C340.49,-99.87 357.53,-99.87 368.01,-99.87"/>
<polygon fill="black" stroke="black" points="368.34,-103.37 378.34,-99.87 368.34,-96.37 368.34,-103.37"/>
<text text-anchor="middle" x="349.66" y="-106.67" font-family="Helvetica,sans-Serif" font-size="14.00">Finish</text>
</g>
<!-- dcb57a2e&#45;e3a6&#45;412a&#45;8b2e&#45;759467e131e9 -->
<g id="node4" class="node">
<title>dcb57a2e&#45;e3a6&#45;412a&#45;8b2e&#45;759467e131e9</title>
<polygon fill="yellow" stroke="black" points="380,-36 0,-36 0,0 380,0 380,-36"/>
<text text-anchor="middle" x="190" y="-14.3" font-family="Helvetica,sans-Serif" font-size="14.00">⋯ Run GitHub Actions for `frontend/src/api/index.js`</text>
</g>
<!-- 8bd357d2&#45;4876&#45;4583&#45;945a&#45;399e6a37701f&#45;&gt;dcb57a2e&#45;e3a6&#45;412a&#45;8b2e&#45;759467e131e9 -->
<g id="edge1" class="edge">
<title>8bd357d2&#45;4876&#45;4583&#45;945a&#45;399e6a37701f&#45;&gt;dcb57a2e&#45;e3a6&#45;412a&#45;8b2e&#45;759467e131e9</title>
<path fill="none" stroke="black" stroke-dasharray="5,2" d="M190,-72.72C190,-64.27 190,-54.89 190,-46.36"/>
<polygon fill="black" stroke="black" points="193.5,-46.15 190,-36.15 186.5,-46.15 193.5,-46.15"/>
</g>
</g>
</svg>
